<?xml version="1.0" standalone="no"?>
<!DOCTYPE svg PUBLIC "-//W3C//DTD SVG 20010904//EN"
 "http://www.w3.org/TR/2001/REC-SVG-20010904/DTD/svg10.dtd">
<svg version="1.0" xmlns="http://www.w3.org/2000/svg"
 width="394.000000pt" height="286.000000pt" viewBox="0 0 394.000000 286.000000"
 preserveAspectRatio="xMidYMid meet">

<g transform="translate(0.000000,286.000000) scale(0.100000,-0.100000)"
fill="#000000" stroke="none">
<path d="M0 1430 l0 -1430 1970 0 1970 0 0 1430 0 1430 -1970 0 -1970 0 0
-1430z m888 218 c152 -300 280 -549 284 -553 4 -4 94 168 202 382 107 213 233
462 280 553 l84 165 121 3 121 3 0 -751 0 -750 -110 0 -110 0 0 532 c0 308 -4
528 -9 522 -5 -5 -102 -193 -217 -419 -338 -667 -317 -629 -357 -633 -19 -2
-38 3 -44 10 -6 7 -129 248 -274 534 l-264 522 -3 -534 -2 -534 -110 0 -110 0
0 750 0 751 121 -3 120 -3 277 -547z m1692 235 l5 -313 348 315 349 315 154 0
c85 0 154 -2 154 -4 0 -2 -161 -150 -357 -328 -456 -411 -450 -406 -437 -415
6 -5 194 -174 418 -378 l408 -370 -156 -3 -156 -3 -360 326 c-198 179 -362
325 -365 325 -3 0 -5 -146 -5 -325 l0 -325 -115 0 -115 0 0 743 c0 409 3 747
7 751 4 3 54 5 112 4 l106 -3 5 -312z"/>
</g>
</svg>
